<?xml version="1.0" encoding="UTF-8" standalone="no"?>
<!-- Generator: Adobe Illustrator 19.1.1, SVG Export Plug-In . SVG Version: 6.00 Build 0)  -->

<svg
   xmlns:dc="http://purl.org/dc/elements/1.1/"
   xmlns:cc="http://creativecommons.org/ns#"
   xmlns:rdf="http://www.w3.org/1999/02/22-rdf-syntax-ns#"
   xmlns:svg="http://www.w3.org/2000/svg"
   xmlns="http://www.w3.org/2000/svg"
   xmlns:sodipodi="http://sodipodi.sourceforge.net/DTD/sodipodi-0.dtd"
   xmlns:inkscape="http://www.inkscape.org/namespaces/inkscape"
   version="1.0"
   id="Calque_1"
   x="0px"
   y="0px"
   viewBox="0 0 150.61701 150.617"
   enable-background="new 0 0 521.667 343"
   xml:space="preserve"
   inkscape:version="0.91 r13725"
   sodipodi:docname="default_group.svg"
   width="150.617"
   height="150.617"><metadata
     id="metadata259"><rdf:RDF><cc:Work
         rdf:about=""><dc:format>image/svg+xml</dc:format><dc:type
           rdf:resource="http://purl.org/dc/dcmitype/StillImage" /><dc:title></dc:title></cc:Work></rdf:RDF></metadata><defs
     id="defs257" /><sodipodi:namedview
     pagecolor="#ffffff"
     bordercolor="#666666"
     borderopacity="1"
     objecttolerance="10"
     gridtolerance="10"
     guidetolerance="10"
     inkscape:pageopacity="0"
     inkscape:pageshadow="2"
     inkscape:window-width="1680"
     inkscape:window-height="1015"
     id="namedview255"
     showgrid="false"
     fit-margin-top="0"
     fit-margin-left="0"
     fit-margin-right="0"
     fit-margin-bottom="0"
     inkscape:zoom="0.68804665"
     inkscape:cx="79.23228"
     inkscape:cy="-4.8939953"
     inkscape:window-x="0"
     inkscape:window-y="26"
     inkscape:window-maximized="0"
     inkscape:current-layer="Calque_1" /><g
     id="g45"
     transform="translate(-184.508,-15.989)"><rect
       x="184.508"
       y="15.989"
       width="150.617"
       height="150.617"
       id="rect47"
       style="fill:#dcf0ff" /><g
       id="g49"><path
         d="m 213.831,38.984 c 4.5,0 8.152,-3.666 8.152,-8.171 0,-4.494 -3.652,-8.16 -8.152,-8.16 -4.516,0 -8.178,3.665 -8.178,8.16 -0.001,4.506 3.661,8.171 8.178,8.171 z"
         id="path51"
         inkscape:connector-curvature="0"
         style="fill:#ffffff" /><path
         d="m 221.609,41.635 -5.552,0 -2.226,3.633 -2.244,-3.633 -6.36,0 c -11.719,0.218 -11.293,8.814 -11.293,8.814 l 0,11.356 6.892,0 0,-9.85 2.157,0 -0.008,9.85 20.655,0 0,-9.927 2.231,0 0,9.927 6.892,0 0,-11.356 c -0.749,-8.956 -11.144,-8.814 -11.144,-8.814 z"
         id="path53"
         inkscape:connector-curvature="0"
         style="fill:#ffffff" /><path
         d="m 260.062,38.385 c 4.502,0 8.154,-3.666 8.154,-8.16 0,-4.516 -3.652,-8.171 -8.154,-8.171 -4.516,0 -8.179,3.654 -8.179,8.171 0,4.494 3.663,8.16 8.179,8.16 z"
         id="path55"
         inkscape:connector-curvature="0"
         style="fill:#ffffff" /><path
         d="m 267.842,41.014 -5.555,0 -2.225,3.654 -2.242,-3.654 -6.352,0 c -11.724,0.229 -11.299,8.825 -11.299,8.825 l -0.013,11.356 6.9,0 0,-9.851 2.165,0 -0.013,9.851 20.655,0 0,-9.949 2.223,0 0,9.949 6.883,0 0,-11.356 c -0.739,-8.945 -11.127,-8.825 -11.127,-8.825 z"
         id="path57"
         inkscape:connector-curvature="0"
         style="fill:#ffffff" /><path
         d="m 306.296,38.385 c 4.494,0 8.157,-3.666 8.157,-8.16 0,-4.516 -3.662,-8.171 -8.157,-8.171 -4.522,0 -8.171,3.654 -8.171,8.171 0,4.494 3.649,8.16 8.171,8.16 z"
         id="path59"
         inkscape:connector-curvature="0"
         style="fill:#ffffff" /><path
         d="m 314.079,41.014 -5.563,0 -2.22,3.654 -2.242,-3.654 -6.354,0 c -11.718,0.229 -11.304,8.825 -11.304,8.825 l -0.003,11.356 6.9,0 0,-9.851 2.16,0 -0.011,9.851 20.658,0 0,-9.949 2.22,0 0,9.949 6.897,0 0,-11.356 c -0.753,-8.945 -11.138,-8.825 -11.138,-8.825 z"
         id="path61"
         inkscape:connector-curvature="0"
         style="fill:#ffffff" /><path
         d="m 214.311,87.07 c 4.505,0 8.162,-3.666 8.162,-8.149 0,-4.527 -3.657,-8.182 -8.162,-8.182 -4.513,0 -8.176,3.654 -8.176,8.182 0,4.484 3.662,8.149 8.176,8.149 z"
         id="path63"
         inkscape:connector-curvature="0"
         style="fill:#ffffff" /><path
         d="m 222.091,89.71 -5.55,0 -2.231,3.654 -2.236,-3.654 -6.357,0 c -11.711,0.229 -11.293,8.836 -11.293,8.836 l -0.011,11.356 6.889,0 0,-9.862 2.168,0 -0.011,9.862 20.661,0 0,-9.96 2.223,0.011 0,9.949 6.891,0 0,-11.356 C 232.482,89.59 222.091,89.71 222.091,89.71 Z"
         id="path65"
         inkscape:connector-curvature="0"
         style="fill:#ffffff" /><path
         d="m 260.545,86.47 c 4.519,0 8.154,-3.665 8.154,-8.17 0,-4.506 -3.635,-8.149 -8.154,-8.149 -4.511,0 -8.171,3.643 -8.171,8.149 0,4.505 3.66,8.17 8.171,8.17 z"
         id="path67"
         inkscape:connector-curvature="0"
         style="fill:#ffffff" /><path
         d="m 268.339,89.11 -5.564,0 -2.231,3.654 -2.234,-3.654 -6.354,0 c -11.724,0.218 -11.301,8.825 -11.301,8.825 l -0.014,11.356 6.911,0 0,-9.861 2.155,0 -0.011,9.861 20.655,0 0,-9.938 2.226,0 0,9.938 6.889,0 0,-11.356 C 278.718,88.979 268.339,89.11 268.339,89.11 Z"
         id="path69"
         inkscape:connector-curvature="0"
         style="fill:#ffffff" /><path
         d="m 306.775,86.47 c 4.511,0 8.16,-3.665 8.16,-8.17 0,-4.506 -3.649,-8.149 -8.16,-8.149 -4.508,0 -8.162,3.643 -8.162,8.149 0,4.505 3.655,8.17 8.162,8.17 z"
         id="path71"
         inkscape:connector-curvature="0"
         style="fill:#ffffff" /><path
         d="m 314.556,89.11 -5.55,0 -2.231,3.654 -2.231,-3.654 -6.349,0 c -11.727,0.218 -11.323,8.825 -11.323,8.825 l 0,11.356 6.902,0 0,-9.861 2.163,0 -0.011,9.861 20.644,0 0,-9.938 2.234,0 0,9.938 6.897,0 0,-11.356 C 324.952,88.979 314.556,89.11 314.556,89.11 Z"
         id="path73"
         inkscape:connector-curvature="0"
         style="fill:#ffffff" /><path
         d="m 213.831,137.708 c 4.5,0 8.152,-3.666 8.152,-8.16 0,-4.516 -3.652,-8.16 -8.152,-8.16 -4.516,0 -8.178,3.643 -8.178,8.16 -0.001,4.495 3.661,8.16 8.178,8.16 z"
         id="path75"
         inkscape:connector-curvature="0"
         style="fill:#ffffff" /><path
         d="m 221.609,140.348 -5.552,0 -2.226,3.666 -2.244,-3.666 -6.36,0 c -11.719,0.229 -11.293,8.825 -11.293,8.825 l 0,11.367 6.892,0 0,-9.872 2.157,0 -0.008,9.872 20.655,0 0,-9.96 2.231,0 0,9.96 6.892,0 0,-11.367 c -0.749,-8.956 -11.144,-8.825 -11.144,-8.825 z"
         id="path77"
         inkscape:connector-curvature="0"
         style="fill:#ffffff" /><path
         d="m 260.062,137.097 c 4.502,0 8.154,-3.643 8.154,-8.16 0,-4.516 -3.652,-8.16 -8.154,-8.16 -4.516,0 -8.179,3.644 -8.179,8.16 0,4.517 3.663,8.16 8.179,8.16 z"
         id="path79"
         inkscape:connector-curvature="0"
         style="fill:#ffffff" /><path
         d="m 267.842,139.738 -5.555,0 -2.225,3.665 -2.242,-3.665 -6.352,0 c -11.724,0.24 -11.299,8.836 -11.299,8.836 l -0.013,11.345 6.9,0 0,-9.84 2.165,0 -0.013,9.84 20.655,0 0,-9.938 2.223,0.011 0,9.927 6.883,0 0,-11.345 c -0.739,-8.968 -11.127,-8.836 -11.127,-8.836 z"
         id="path81"
         inkscape:connector-curvature="0"
         style="fill:#ffffff" /><path
         d="m 306.296,137.097 c 4.494,0 8.157,-3.643 8.157,-8.16 0,-4.516 -3.662,-8.16 -8.157,-8.16 -4.522,0 -8.171,3.644 -8.171,8.16 0,4.517 3.649,8.16 8.171,8.16 z"
         id="path83"
         inkscape:connector-curvature="0"
         style="fill:#ffffff" /><path
         d="m 314.079,139.738 -5.563,0 -2.22,3.665 -2.242,-3.665 -6.354,0 c -11.718,0.24 -11.304,8.836 -11.304,8.836 l -0.003,11.345 6.9,0 0,-9.84 2.16,0 -0.011,9.84 20.658,0 0,-9.938 2.22,0.011 0,9.927 6.897,0 0,-11.345 c -0.753,-8.968 -11.138,-8.836 -11.138,-8.836 z"
         id="path85"
         inkscape:connector-curvature="0"
         style="fill:#ffffff" /></g></g></svg>