<?xml version="1.0" encoding="UTF-8" standalone="no"?>
<!-- Generator: Adobe Illustrator 19.1.1, SVG Export Plug-In . SVG Version: 6.00 Build 0)  -->

<svg
   xmlns:dc="http://purl.org/dc/elements/1.1/"
   xmlns:cc="http://creativecommons.org/ns#"
   xmlns:rdf="http://www.w3.org/1999/02/22-rdf-syntax-ns#"
   xmlns:svg="http://www.w3.org/2000/svg"
   xmlns="http://www.w3.org/2000/svg"
   xmlns:sodipodi="http://sodipodi.sourceforge.net/DTD/sodipodi-0.dtd"
   xmlns:inkscape="http://www.inkscape.org/namespaces/inkscape"
   version="1.0"
   id="Calque_1"
   x="0px"
   y="0px"
   viewBox="0 0 260.98999 146.80701"
   enable-background="new 0 0 853 343.667"
   xml:space="preserve"
   inkscape:version="0.91 r13725"
   sodipodi:docname="default_video.svg"
   width="260.98999"
   height="146.80701"><metadata
     id="metadata79"><rdf:RDF><cc:Work
         rdf:about=""><dc:format>image/svg+xml</dc:format><dc:type
           rdf:resource="http://purl.org/dc/dcmitype/StillImage" /><dc:title></dc:title></cc:Work></rdf:RDF></metadata><defs
     id="defs77" /><sodipodi:namedview
     pagecolor="#ffffff"
     bordercolor="#666666"
     borderopacity="1"
     objecttolerance="10"
     gridtolerance="10"
     guidetolerance="10"
     inkscape:pageopacity="0"
     inkscape:pageshadow="2"
     inkscape:window-width="1680"
     inkscape:window-height="1015"
     id="namedview75"
     showgrid="false"
     fit-margin-top="0"
     fit-margin-left="0"
     fit-margin-right="0"
     fit-margin-bottom="0"
     inkscape:zoom="0.43493552"
     inkscape:cx="135.5744"
     inkscape:cy="-10.490489"
     inkscape:window-x="0"
     inkscape:window-y="26"
     inkscape:window-maximized="0"
     inkscape:current-layer="Calque_1" /><rect
     x="0"
     y="0"
     width="260.98999"
     height="146.80701"
     id="rect15"
     style="fill:#dcf0ff" /><g
     id="g17"
     transform="translate(-295.52399,-14.536)"><g
       id="g19"><path
         d="M 443.874,85.403 417.846,66.492 c -0.963,-0.697 -2.229,-0.798 -3.274,-0.266 -1.055,0.532 -1.711,1.614 -1.711,2.797 l 0,37.831 c 0,1.174 0.656,2.265 1.711,2.797 0.449,0.22 0.935,0.339 1.431,0.339 0.642,0 1.293,-0.211 1.843,-0.605 l 26.028,-18.911 c 0.825,-0.596 1.303,-1.541 1.303,-2.54 0,-0.999 -0.491,-1.935 -1.303,-2.531 z"
         id="path21"
         inkscape:connector-curvature="0"
         style="fill:#ffffff" /></g><g
       id="g23"><path
         d="m 426.022,25.273 c -34.63,0 -62.681,28.055 -62.681,62.676 0,34.612 28.05,62.657 62.681,62.657 34.612,0 62.676,-28.045 62.676,-62.657 -10e-4,-34.621 -28.064,-62.676 -62.676,-62.676 z m 0,114.878 c -28.834,0 -52.212,-23.368 -52.212,-52.202 0,-28.825 23.377,-52.212 52.212,-52.212 28.825,0 52.202,23.387 52.202,52.212 0,28.834 -23.377,52.202 -52.202,52.202 z"
         id="path25"
         inkscape:connector-curvature="0"
         style="fill:#ffffff" /></g></g></svg>