<?xml version="1.0" encoding="UTF-8" standalone="no"?>
<!-- Generator: Adobe Illustrator 19.1.1, SVG Export Plug-In . SVG Version: 6.00 Build 0)  -->

<svg
   xmlns:dc="http://purl.org/dc/elements/1.1/"
   xmlns:cc="http://creativecommons.org/ns#"
   xmlns:rdf="http://www.w3.org/1999/02/22-rdf-syntax-ns#"
   xmlns:svg="http://www.w3.org/2000/svg"
   xmlns="http://www.w3.org/2000/svg"
   xmlns:sodipodi="http://sodipodi.sourceforge.net/DTD/sodipodi-0.dtd"
   xmlns:inkscape="http://www.inkscape.org/namespaces/inkscape"
   version="1.0"
   id="Calque_1"
   x="0px"
   y="0px"
   viewBox="0 0 167.21001 149.01601"
   enable-background="new 0 0 1141.557 349.914"
   xml:space="preserve"
   inkscape:version="0.91 r13725"
   sodipodi:docname="default_user.svg"
   width="167.21001"
   height="149.01601"><metadata
     id="metadata139"><rdf:RDF><cc:Work
         rdf:about=""><dc:format>image/svg+xml</dc:format><dc:type
           rdf:resource="http://purl.org/dc/dcmitype/StillImage" /><dc:title></dc:title></cc:Work></rdf:RDF></metadata><defs
     id="defs137" /><sodipodi:namedview
     pagecolor="#ffffff"
     bordercolor="#666666"
     borderopacity="1"
     objecttolerance="10"
     gridtolerance="10"
     guidetolerance="10"
     inkscape:pageopacity="0"
     inkscape:pageshadow="2"
     inkscape:window-width="1680"
     inkscape:window-height="1015"
     id="namedview135"
     showgrid="false"
     fit-margin-top="0"
     fit-margin-left="0"
     fit-margin-right="0"
     fit-margin-bottom="0"
     inkscape:zoom="1.2999789"
     inkscape:cx="152.96529"
     inkscape:cy="92.646712"
     inkscape:window-x="0"
     inkscape:window-y="26"
     inkscape:window-maximized="0"
     inkscape:current-layer="Calque_1" /><rect
     x="0"
     y="0"
     width="167.21001"
     height="149.01601"
     id="rect43"
     style="fill:#dcf0ff" /><g
     id="g45"
     transform="translate(-204.73599,-182.362)"><g
       id="g47"><g
         id="g49"><path
           d="m 337.527,275.431 c -2.534,-5.524 -15.777,-10.444 -20.342,-11.989 -7.089,-15.173 -3.258,-34.326 -3.258,-34.326 -1.253,5.446 -2.851,7.535 -2.851,7.535 -1.254,9.848 -9.456,17.97 -9.456,17.97 -0.15,2.624 0.194,4.868 0.839,6.801 -12.7,20.033 -23.07,9.555 -28.173,1.373 0.98,-2.201 1.545,-4.876 1.368,-8.174 0,0 -8.202,-8.122 -9.455,-17.97 0,0 -1.598,-2.089 -2.843,-7.535 0,0 3.81,19.101 -3.231,34.256 -5.461,2.287 -10.957,3.919 -10.957,3.919 -5.929,2.218 -8.45,5.567 -8.45,5.567 -8.776,12.722 -9.8,41.032 -9.8,41.032 0.115,6.456 2.966,7.138 2.966,7.138 20.179,8.795 51.826,10.349 51.826,10.349 32.499,0.682 56.147,-9.019 56.147,-9.019 3.448,-2.115 3.544,-3.789 3.544,-3.789 2.394,-20.292 -7.874,-43.138 -7.874,-43.138 z"
           id="path51"
           inkscape:connector-curvature="0"
           style="fill:#ffffff" /></g></g><g
       id="g53"><g
         id="g55"><path
           d="m 302.662,216.748 c 0.335,1.26 2.428,7.785 9.456,10.711 0,0 0.256,-2.684 1.024,-2.926 0,0 0.852,0.414 1.104,1.424 0,0 1.845,-17.115 -6.127,-23.502 l 0.035,-0.086 c -16.629,-14.354 -35.453,-3.435 -35.453,-3.435 -13.795,8.674 -9.946,27.429 -9.946,27.429 25.953,2.4 39.496,-9.261 39.907,-9.615 z"
           id="path57"
           inkscape:connector-curvature="0"
           style="fill:#ffffff" /></g></g></g></svg>