<?xml version="1.0" encoding="UTF-8" standalone="no"?>
<!-- Generator: Adobe Illustrator 19.1.1, SVG Export Plug-In . SVG Version: 6.00 Build 0)  -->

<svg
   xmlns:dc="http://purl.org/dc/elements/1.1/"
   xmlns:cc="http://creativecommons.org/ns#"
   xmlns:rdf="http://www.w3.org/1999/02/22-rdf-syntax-ns#"
   xmlns:svg="http://www.w3.org/2000/svg"
   xmlns="http://www.w3.org/2000/svg"
   xmlns:sodipodi="http://sodipodi.sourceforge.net/DTD/sodipodi-0.dtd"
   xmlns:inkscape="http://www.inkscape.org/namespaces/inkscape"
   version="1.0"
   id="Calque_1"
   x="0px"
   y="0px"
   viewBox="0 0 260.98999 146.80701"
   enable-background="new 0 0 853 343.667"
   xml:space="preserve"
   inkscape:version="0.91 r13725"
   sodipodi:docname="default_channel.svg"
   width="260.98999"
   height="146.80701"><metadata
     id="metadata607"><rdf:RDF><cc:Work
         rdf:about=""><dc:format>image/svg+xml</dc:format><dc:type
           rdf:resource="http://purl.org/dc/dcmitype/StillImage" /><dc:title></dc:title><cc:license
           rdf:resource="http://creativecommons.org/licenses/by/3.0/" /></cc:Work><cc:License
         rdf:about="http://creativecommons.org/licenses/by/3.0/"><cc:permits
           rdf:resource="http://creativecommons.org/ns#Reproduction" /><cc:permits
           rdf:resource="http://creativecommons.org/ns#Distribution" /><cc:requires
           rdf:resource="http://creativecommons.org/ns#Notice" /><cc:requires
           rdf:resource="http://creativecommons.org/ns#Attribution" /><cc:permits
           rdf:resource="http://creativecommons.org/ns#DerivativeWorks" /></cc:License></rdf:RDF></metadata><defs
     id="defs605" /><sodipodi:namedview
     pagecolor="#ffffff"
     bordercolor="#666666"
     borderopacity="1"
     objecttolerance="10"
     gridtolerance="10"
     guidetolerance="10"
     inkscape:pageopacity="0"
     inkscape:pageshadow="2"
     inkscape:window-width="1680"
     inkscape:window-height="1015"
     id="namedview603"
     showgrid="false"
     fit-margin-top="0"
     fit-margin-left="0"
     fit-margin-right="0"
     fit-margin-bottom="0"
     inkscape:zoom="0.86987104"
     inkscape:cx="-59.996324"
     inkscape:cy="-4.6169595"
     inkscape:window-x="0"
     inkscape:window-y="26"
     inkscape:window-maximized="0"
     inkscape:current-layer="Calque_1" /><rect
     x="0"
     y="0"
     width="260.98999"
     height="146.80701"
     id="rect5"
     style="fill:#dcf0ff" /><g
     id="g113"
     transform="translate(-296.76099,-17.886)"><g
       id="g115"><g
         id="g117"><g
           id="g119"><path
             d="m 350.92,65.258 -10.972,-7.971 c -0.406,-0.294 -0.939,-0.336 -1.38,-0.112 -0.445,0.224 -0.721,0.681 -0.721,1.179 l 0,15.947 c 0,0.495 0.277,0.955 0.721,1.179 0.189,0.093 0.394,0.143 0.603,0.143 0.271,0 0.545,-0.089 0.777,-0.255 l 10.972,-7.971 c 0.348,-0.251 0.549,-0.65 0.549,-1.071 0,-0.422 -0.207,-0.816 -0.549,-1.068 z"
             id="path121"
             inkscape:connector-curvature="0"
             style="fill:#ffffff" /></g><g
           id="g123"><path
             d="m 343.395,39.912 c -14.598,0 -26.422,11.826 -26.422,26.42 0,14.59 11.824,26.412 26.422,26.412 14.59,0 26.42,-11.822 26.42,-26.412 -10e-4,-14.595 -11.83,-26.42 -26.42,-26.42 z m 0,48.424 c -12.155,0 -22.009,-9.85 -22.009,-22.005 0,-12.151 9.854,-22.009 22.009,-22.009 12.15,0 22.005,9.858 22.005,22.009 0,12.155 -9.855,22.005 -22.005,22.005 z"
             id="path125"
             inkscape:connector-curvature="0"
             style="fill:#ffffff" /></g></g><g
         id="g127"><g
           id="g129"><g
             id="g131"><rect
               x="320.46399"
               y="106.011"
               width="45.859001"
               height="6.276"
               id="rect133"
               style="clip-rule:evenodd;fill:#ffffff;fill-rule:evenodd" /></g></g><g
           id="g135"><g
             id="g137"><rect
               x="320.46399"
               y="121.613"
               width="45.859001"
               height="6.2870002"
               id="rect139"
               style="clip-rule:evenodd;fill:#ffffff;fill-rule:evenodd" /></g></g><g
           id="g141"><g
             id="g143"><rect
               x="320.46399"
               y="136.38"
               width="45.859001"
               height="6.2870002"
               id="rect145"
               style="clip-rule:evenodd;fill:#ffffff;fill-rule:evenodd" /></g></g></g></g><g
       id="g147"><g
         id="g149"><g
           id="g151"><path
             d="m 434.783,65.258 -10.972,-7.971 c -0.406,-0.294 -0.939,-0.336 -1.38,-0.112 -0.445,0.224 -0.721,0.681 -0.721,1.179 l 0,15.947 c 0,0.495 0.276,0.955 0.721,1.179 0.189,0.093 0.394,0.143 0.603,0.143 0.271,0 0.545,-0.089 0.777,-0.255 l 10.972,-7.971 c 0.348,-0.251 0.549,-0.65 0.549,-1.071 0,-0.422 -0.207,-0.816 -0.549,-1.068 z"
             id="path153"
             inkscape:connector-curvature="0"
             style="fill:#ffffff" /></g><g
           id="g155"><path
             d="m 427.257,39.912 c -14.598,0 -26.422,11.826 -26.422,26.42 0,14.59 11.824,26.412 26.422,26.412 14.59,0 26.42,-11.822 26.42,-26.412 0,-14.595 -11.83,-26.42 -26.42,-26.42 z m 0,48.424 c -12.155,0 -22.009,-9.85 -22.009,-22.005 0,-12.151 9.854,-22.009 22.009,-22.009 12.15,0 22.005,9.858 22.005,22.009 0,12.155 -9.854,22.005 -22.005,22.005 z"
             id="path157"
             inkscape:connector-curvature="0"
             style="fill:#ffffff" /></g></g><g
         id="g159"><g
           id="g161"><g
             id="g163"><rect
               x="404.32599"
               y="106.011"
               width="45.859001"
               height="6.276"
               id="rect165"
               style="clip-rule:evenodd;fill:#ffffff;fill-rule:evenodd" /></g></g><g
           id="g167"><g
             id="g169"><rect
               x="404.32599"
               y="121.613"
               width="45.859001"
               height="6.2870002"
               id="rect171"
               style="clip-rule:evenodd;fill:#ffffff;fill-rule:evenodd" /></g></g><g
           id="g173"><g
             id="g175"><rect
               x="404.32599"
               y="136.38"
               width="45.859001"
               height="6.2870002"
               id="rect177"
               style="clip-rule:evenodd;fill:#ffffff;fill-rule:evenodd" /></g></g></g></g><g
       id="g179"><g
         id="g181"><g
           id="g183"><path
             d="m 518.645,65.258 -10.972,-7.971 c -0.406,-0.294 -0.939,-0.336 -1.38,-0.112 -0.445,0.224 -0.721,0.681 -0.721,1.179 l 0,15.947 c 0,0.495 0.277,0.955 0.721,1.179 0.189,0.093 0.394,0.143 0.603,0.143 0.271,0 0.545,-0.089 0.777,-0.255 l 10.972,-7.971 c 0.348,-0.251 0.549,-0.65 0.549,-1.071 0,-0.422 -0.207,-0.816 -0.549,-1.068 z"
             id="path185"
             inkscape:connector-curvature="0"
             style="fill:#ffffff" /></g><g
           id="g187"><path
             d="m 511.12,39.912 c -14.598,0 -26.422,11.826 -26.422,26.42 0,14.59 11.824,26.412 26.422,26.412 14.59,0 26.42,-11.822 26.42,-26.412 -10e-4,-14.595 -11.83,-26.42 -26.42,-26.42 z m 0,48.424 c -12.155,0 -22.009,-9.85 -22.009,-22.005 0,-12.151 9.854,-22.009 22.009,-22.009 12.15,0 22.005,9.858 22.005,22.009 0,12.155 -9.855,22.005 -22.005,22.005 z"
             id="path189"
             inkscape:connector-curvature="0"
             style="fill:#ffffff" /></g></g><g
         id="g191"><g
           id="g193"><g
             id="g195"><rect
               x="488.189"
               y="106.011"
               width="45.859001"
               height="6.276"
               id="rect197"
               style="clip-rule:evenodd;fill:#ffffff;fill-rule:evenodd" /></g></g><g
           id="g199"><g
             id="g201"><rect
               x="488.189"
               y="121.613"
               width="45.859001"
               height="6.2870002"
               id="rect203"
               style="clip-rule:evenodd;fill:#ffffff;fill-rule:evenodd" /></g></g><g
           id="g205"><g
             id="g207"><rect
               x="488.189"
               y="136.38"
               width="45.859001"
               height="6.2870002"
               id="rect209"
               style="clip-rule:evenodd;fill:#ffffff;fill-rule:evenodd" /></g></g></g></g></g></svg>