<?xml version="1.0" encoding="UTF-8" standalone="no"?>
<!-- Created with Inkscape (http://www.inkscape.org/) -->

<svg
   xmlns:dc="http://purl.org/dc/elements/1.1/"
   xmlns:cc="http://creativecommons.org/ns#"
   xmlns:rdf="http://www.w3.org/1999/02/22-rdf-syntax-ns#"
   xmlns:svg="http://www.w3.org/2000/svg"
   xmlns="http://www.w3.org/2000/svg"
   xmlns:sodipodi="http://sodipodi.sourceforge.net/DTD/sodipodi-0.dtd"
   xmlns:inkscape="http://www.inkscape.org/namespaces/inkscape"
   width="8.0512934mm"
   height="8.0996237mm"
   viewBox="0 0 28.528205 28.699454"
   id="svg4171"
   version="1.1"
   inkscape:version="0.91 r13725"
   sodipodi:docname="favicon.svg">
  <defs
     id="defs4173" />
  <sodipodi:namedview
     id="base"
     pagecolor="#ffffff"
     bordercolor="#666666"
     borderopacity="1.0"
     inkscape:pageopacity="0.0"
     inkscape:pageshadow="2"
     inkscape:zoom="1.4"
     inkscape:cx="-66.690284"
     inkscape:cy="-40.029787"
     inkscape:document-units="px"
     inkscape:current-layer="layer1"
     showgrid="false"
     inkscape:window-width="1914"
     inkscape:window-height="1018"
     inkscape:window-x="0"
     inkscape:window-y="26"
     inkscape:window-maximized="0"
     fit-margin-top="0"
     fit-margin-left="0"
     fit-margin-right="0"
     fit-margin-bottom="0" />
  <metadata
     id="metadata4176">
    <rdf:RDF>
      <cc:Work
         rdf:about="">
        <dc:format>image/svg+xml</dc:format>
        <dc:type
           rdf:resource="http://purl.org/dc/dcmitype/StillImage" />
        <dc:title></dc:title>
      </cc:Work>
    </rdf:RDF>
  </metadata>
  <g
     inkscape:label="Layer 1"
     inkscape:groupmode="layer"
     id="layer1"
     transform="translate(-2.878752,-0.869619)">
    <path
       inkscape:connector-curvature="0"
       style="fill:#b17f4a"
       d="m 29.935829,25.033768 c -6.292,6.146 -16.375,6.032 -22.5229999,-0.26 -6.146,-6.291 -6.029,-16.3759955 0.261,-22.5219955 6.2929999,-6.146 28.5529999,16.6359955 22.2619999,22.7819955 l 0,0 z"
       id="path3" />
    <path
       inkscape:connector-curvature="0"
       style="fill:#7d4e24"
       d="m 30.031829,24.939768 c -3.146,3.073 -10.679,0.467 -16.826,-5.824 -6.1479999,-6.29 -8.5809999,-13.8839955 -5.4349999,-16.9569955 3.1459999,-3.07300003 10.6799999,-0.464 16.8259999,5.827 6.148,6.2909955 8.58,13.8819955 5.435,16.9539955 l 0,0 z"
       id="path5" />
    <path
       inkscape:connector-curvature="0"
       style="fill:#ffffff"
       d="m 28.816829,23.696768 c -2.623,2.563 -9.188,0.099 -14.664,-5.507 -5.4759999,-5.604 -7.7889999,-12.2239955 -5.1669999,-14.7879955 2.6229999,-2.56400003 9.1879999,-0.095 14.6639999,5.507996 5.475,5.6049995 7.789,12.2259995 5.167,14.7869995 l 0,0 z"
       id="path7" />
    <path
       inkscape:connector-curvature="0"
       style="fill:#c6c6c6"
       d="m 25.652829,20.460768 c -1.786,1.745 -6.256,0.065 -9.986,-3.751 -3.729,-3.815 -5.303,-8.3239955 -3.518,-10.0709955 1.785,-1.744 6.256,-0.063 9.985,3.7509955 3.73,3.818 5.305,8.326 3.519,10.071 l 0,0 z"
       id="path9" />
  </g>
</svg>
