<?xml version="1.0" encoding="utf-8"?>
<!-- Generator: Adobe Illustrator 16.0.0, SVG Export Plug-In . SVG Version: 6.00 Build 0)  -->
<!DOCTYPE svg PUBLIC "-//W3C//DTD SVG 1.0//EN" "http://www.w3.org/TR/2001/REC-SVG-20010904/DTD/svg10.dtd">
<svg version="1.0" id="Calque_1" xmlns="http://www.w3.org/2000/svg" xmlns:xlink="http://www.w3.org/1999/xlink" x="0px" y="0px"
	 width="18px" height="18px" viewBox="0 0 18 18" enable-background="new 0 0 18 18" xml:space="preserve">
<path fill="#FFFFFF" d="M9.001,0C4.037,0.001,0.002,4.036,0,9c0.002,4.965,4.037,8.999,9.001,9C13.965,17.999,18,13.965,18,9
	C18,4.036,13.965,0.001,9.001,0z M14.654,14.654C13.205,16.104,11.208,17,9.001,17c-2.206,0-4.204-0.896-5.655-2.346
	C1.898,13.204,1.002,11.207,1,9c0.002-2.205,0.898-4.203,2.346-5.654C4.797,1.896,6.795,1,9.001,1c2.207,0,4.204,0.896,5.653,2.346
	C16.104,4.797,17,6.794,17,9C17,11.207,16.104,13.204,14.654,14.654z"/>
<path fill="#FFFFFF" d="M9.825,11.932V6.938L7.488,6.932v0.996h1.139v4.004H7.488v0.996h3.451v-0.996H9.825L9.825,11.932z
	 M10.018,5.038c0-0.467-0.385-0.851-0.852-0.851c-0.468,0-0.852,0.384-0.852,0.851c0,0.479,0.384,0.853,0.852,0.853
	C9.646,5.891,10.018,5.518,10.018,5.038L10.018,5.038z"/>
</svg>
