<?xml version="1.0" encoding="UTF-8" standalone="no"?>
<!-- Created with Inkscape (http://www.inkscape.org/) -->

<svg
   xmlns:dc="http://purl.org/dc/elements/1.1/"
   xmlns:cc="http://creativecommons.org/ns#"
   xmlns:rdf="http://www.w3.org/1999/02/22-rdf-syntax-ns#"
   xmlns:svg="http://www.w3.org/2000/svg"
   xmlns="http://www.w3.org/2000/svg"
   xmlns:sodipodi="http://sodipodi.sourceforge.net/DTD/sodipodi-0.dtd"
   xmlns:inkscape="http://www.inkscape.org/namespaces/inkscape"
   width="6.529211mm"
   height="3.9511111mm"
   viewBox="0 0 23.135 14"
   id="svg16767"
   version="1.1"
   inkscape:version="0.91 r13725"
   sodipodi:docname="icon_channel.svg">
  <defs
     id="defs16769" />
  <sodipodi:namedview
     id="base"
     pagecolor="#ffffff"
     bordercolor="#666666"
     borderopacity="1.0"
     inkscape:pageopacity="0.0"
     inkscape:pageshadow="2"
     inkscape:zoom="3.959798"
     inkscape:cx="59.855691"
     inkscape:cy="-70.330158"
     inkscape:document-units="px"
     inkscape:current-layer="layer1"
     showgrid="false"
     fit-margin-top="0"
     fit-margin-left="0"
     fit-margin-right="0"
     fit-margin-bottom="0"
     inkscape:window-width="1914"
     inkscape:window-height="1018"
     inkscape:window-x="0"
     inkscape:window-y="26"
     inkscape:window-maximized="0" />
  <metadata
     id="metadata16772">
    <rdf:RDF>
      <cc:Work
         rdf:about="">
        <dc:format>image/svg+xml</dc:format>
        <dc:type
           rdf:resource="http://purl.org/dc/dcmitype/StillImage" />
        <dc:title></dc:title>
      </cc:Work>
    </rdf:RDF>
  </metadata>
  <g
     inkscape:label="Layer 1"
     inkscape:groupmode="layer"
     id="layer1"
     transform="translate(674.42464,48.92351)">
    <g
       id="g11937"
       transform="translate(-889.15964,-247.83751)">
      <g
         id="g11939">
        <polygon
           points="217.957,198.914 217.957,201.598 219.768,201.598 219.768,200.281 236.059,200.281 236.059,208.378 234.894,208.378 234.894,209.743 237.87,209.743 237.87,198.914 "
           id="polygon11941"
           style="fill:#66ccff" />
      </g>
      <g
         id="g11943">
        <path
           d="m 214.735,202.087 0,10.827 19.913,0 0,-10.827 -19.913,0 z m 18.102,9.462 -16.293,0 0,-8.096 16.293,0 0,8.096 z"
           id="path11945"
           inkscape:connector-curvature="0"
           style="fill:#66ccff" />
      </g>
      <g
         id="g11947">
        <path
           d="m 226.639,207.167 -3.413,-2.482 c -0.126,-0.092 -0.292,-0.105 -0.429,-0.035 -0.138,0.07 -0.224,0.212 -0.224,0.367 l 0,4.964 c 0,0.154 0.086,0.297 0.224,0.367 0.059,0.029 0.123,0.044 0.188,0.044 0.084,0 0.17,-0.028 0.242,-0.079 l 3.413,-2.482 c 0.108,-0.078 0.171,-0.202 0.171,-0.333 -0.001,-0.13 -0.065,-0.252 -0.172,-0.331 z"
           id="path11949"
           inkscape:connector-curvature="0"
           style="fill:#66ccff" />
      </g>
    </g>
  </g>
</svg>
