<?xml version="1.0" encoding="utf-8"?>
<!-- Generator: Adobe Illustrator 17.0.1, SVG Export Plug-In . SVG Version: 6.00 Build 0)  -->
<!DOCTYPE svg PUBLIC "-//W3C//DTD SVG 1.1//EN" "http://www.w3.org/Graphics/SVG/1.1/DTD/svg11.dtd">
<svg version="1.1" id="Camada_1" xmlns="http://www.w3.org/2000/svg" xmlns:xlink="http://www.w3.org/1999/xlink" x="0px" y="0px"
	 width="221.5px" height="67px" viewBox="0 0 221.5 67" enable-background="new 0 0 221.5 67" xml:space="preserve">
<circle fill="#D4111C" cx="186.775" cy="34.129" r="27.942"/>
<circle fill="#FAC195" cx="186.81" cy="33.892" r="13.407"/>
<g>
	<path d="M53.225,27.345l-13.137,0.824c-0.184-7.556-3.131-11.333-8.842-11.333c-6.55,0-9.825,5.816-9.825,17.45
		c0,6.719,0.891,11.274,2.671,13.666c1.781,2.393,4.271,3.589,7.466,3.589c5.186,0,8.356-3.373,9.509-10.118l12.157,0.745
		c-0.784,6.406-3.17,11.274-7.157,14.607c-3.987,3.334-8.869,5-14.646,5c-7.085,0-12.843-2.444-17.274-7.333
		C9.716,49.554,7.5,42.796,7.5,34.168c0-8.078,2.144-14.691,6.432-19.842c4.287-5.15,10.143-7.726,17.568-7.726
		C44.362,6.601,51.604,13.516,53.225,27.345z"/>
	<path fill="#D4111C" d="M80.538,61.775c-7.209,0-12.787-2.705-16.731-8.117c-3.944-5.412-5.916-11.961-5.916-19.646
		c0-7.816,1.999-14.339,5.995-19.568c3.996-5.229,9.691-7.843,17.083-7.843c7.47,0,13.105,2.791,16.906,8.372
		c3.8,5.582,5.701,11.968,5.701,19.156c0,7.765-1.959,14.313-5.877,19.646C93.781,59.109,88.061,61.775,80.538,61.775z
		 M80.89,16.836c-6.575,0-9.862,5.777-9.862,17.332c0,11.582,3.287,17.373,9.862,17.373c6.366,0,9.549-5.778,9.549-17.333
		C90.439,22.626,87.256,16.836,80.89,16.836z"/>
	<path d="M154.948,27.345l-13.138,0.824c-0.184-7.556-3.131-11.333-8.842-11.333c-6.55,0-9.824,5.816-9.824,17.45
		c0,6.719,0.891,11.274,2.672,13.666c1.781,2.393,4.27,3.589,7.466,3.589c5.187,0,8.355-3.373,9.509-10.118l12.157,0.745
		c-0.785,6.406-3.171,11.274-7.157,14.607c-3.987,3.334-8.869,5-14.646,5c-7.085,0-12.843-2.444-17.274-7.333
		c-4.431-4.889-6.646-11.646-6.646-20.274c0-8.078,2.144-14.691,6.431-19.842s10.144-7.726,17.568-7.726
		C146.085,6.601,153.326,13.516,154.948,27.345z"/>
</g>
</svg>
