<?xml version="1.0" encoding="utf-8"?>
<svg version="1.1" id="separator" xmlns="http://www.w3.org/2000/svg" x="0px" y="0px" width="16" height="240"
     viewBox="0 0 15 239" enable-background="new 0 0 15 239" xml:space="preserve">
  <rect fill="#000" x="0" y="0" width="16" height="72" />
  <g transform="translate(0,100)">
	<g>
	  <path fill="#464E55" d="M11.2,114.1l-5.5-4c-0.2-0.1-0.5-0.2-0.7-0.1c-0.2,0.1-0.4,0.3-0.4,0.6v8.1c0,0.3,0.1,0.5,0.4,0.6
			                  c0.1,0,0.2,0.1,0.3,0.1c0.1,0,0.3,0,0.4-0.1l5.5-4c0.2-0.1,0.3-0.3,0.3-0.5C11.5,114.4,11.3,114.2,11.2,114.1z"/>
	</g>
	<g>
	  <path fill="#464E55" d="M4.8,124.6l5.5,4c0.2,0.1,0.5,0.2,0.7,0.1c0.2-0.1,0.4-0.3,0.4-0.6v-8.1c0-0.3-0.1-0.5-0.4-0.6
			                  c-0.1,0-0.2-0.1-0.3-0.1c-0.1,0-0.3,0-0.4,0.1l-5.5,4c-0.2,0.1-0.3,0.3-0.3,0.5C4.6,124.3,4.7,124.5,4.8,124.6z"/>
	</g>
</g>
</svg>
