<?xml version="1.0" encoding="UTF-8" standalone="no"?>
<!-- Generator: Adobe Illustrator 16.0.0, SVG Export Plug-In . SVG Version: 6.00 Build 0)  -->

<svg
   xmlns:osb="http://www.openswatchbook.org/uri/2009/osb"
   xmlns:dc="http://purl.org/dc/elements/1.1/"
   xmlns:cc="http://creativecommons.org/ns#"
   xmlns:rdf="http://www.w3.org/1999/02/22-rdf-syntax-ns#"
   xmlns:svg="http://www.w3.org/2000/svg"
   xmlns="http://www.w3.org/2000/svg"
   xmlns:xlink="http://www.w3.org/1999/xlink"
   xmlns:sodipodi="http://sodipodi.sourceforge.net/DTD/sodipodi-0.dtd"
   xmlns:inkscape="http://www.inkscape.org/namespaces/inkscape"
   version="1.0"
   id="Calque_1"
   x="0px"
   y="0px"
   width="32px"
   height="22px"
   viewBox="0 0 32 22"
   enable-background="new 0 0 32 22"
   xml:space="preserve"
   inkscape:version="0.91 r13725"
   sodipodi:docname="coco_video_control_sound_mute.svg"><metadata
     id="metadata17"><rdf:RDF><cc:Work
         rdf:about=""><dc:format>image/svg+xml</dc:format><dc:type
           rdf:resource="http://purl.org/dc/dcmitype/StillImage" /><dc:title></dc:title></cc:Work></rdf:RDF></metadata><defs
     id="defs15"><linearGradient
       id="linearGradient4149"
       osb:paint="solid"><stop
         style="stop-color:#ffffff;stop-opacity:1;"
         offset="0"
         id="stop4151" /></linearGradient><inkscape:path-effect
       effect="spiro"
       id="path-effect4147"
       is_visible="true" /><linearGradient
       inkscape:collect="always"
       xlink:href="#linearGradient4149"
       id="linearGradient4153"
       x1="5.9325478"
       y1="10.96191"
       x2="28.08135"
       y2="10.96191"
       gradientUnits="userSpaceOnUse" /></defs><sodipodi:namedview
     pagecolor="#ffffff"
     bordercolor="#666666"
     borderopacity="1"
     objecttolerance="10"
     gridtolerance="10"
     guidetolerance="10"
     inkscape:pageopacity="1"
     inkscape:pageshadow="2"
     inkscape:window-width="1024"
     inkscape:window-height="768"
     id="namedview13"
     showgrid="false"
     inkscape:zoom="10.727273"
     inkscape:cx="16"
     inkscape:cy="11"
     inkscape:window-x="0"
     inkscape:window-y="26"
     inkscape:window-maximized="0"
     inkscape:current-layer="Calque_1" /><path
     fill="#FFFFFF"
     d="M31,1v20H1V1H31 M32,0H0v22h32V0L32,0z"
     id="path3" /><g
     id="g5"><path
       fill="#FFFFFF"
       d="M22.552,6l-0.824,0.666c0.108,0.104,0.227,0.193,0.327,0.307c0.912,1.031,1.475,2.453,1.475,4.027   c0,1.578-0.562,2.998-1.475,4.031c-0.1,0.111-0.217,0.199-0.323,0.303L22.555,16c1.193-1.242,1.945-3.02,1.945-5   C24.5,9.02,23.746,7.243,22.552,6z"
       id="path7" /><path
       fill="#FFFFFF"
       d="M20.881,7.352l-0.844,0.684c0.9,0.602,1.51,1.697,1.512,2.965c-0.002,1.267-0.61,2.363-1.508,2.966   l0.844,0.682C21.871,13.818,22.52,12.5,22.52,11C22.52,9.5,21.87,8.182,20.881,7.352z"
       id="path9" /><path
       fill="#FFFFFF"
       d="M20.488,11.002c0-0.83-0.399-1.541-0.988-1.932V4l-4.001,4H9.5v6h6.001l3.999,4v-5.068   C20.089,12.541,20.488,11.833,20.488,11.002z"
       id="path11" /></g><path
     style="fill:url(#linearGradient4153);fill-rule:evenodd;stroke:#ffffff;stroke-width:1px;stroke-linecap:butt;stroke-linejoin:miter;stroke-opacity:1;fill-opacity:1"
     d="m 6.2457627,2.7033898 20.4152543,16.4067792 -0.186441,0"
     id="path4145"
     inkscape:path-effect="#path-effect4147"
     inkscape:original-d="M 6.2457627,2.7033898 C 26.661017,19.110169 26.661017,19.110169 26.661017,19.110169 l -0.186441,0"
     inkscape:connector-curvature="0" /></svg>