<?xml version="1.0" encoding="utf-8"?>
<!-- Generator: Adobe Illustrator 16.0.0, SVG Export Plug-In . SVG Version: 6.00 Build 0)  -->
<!DOCTYPE svg PUBLIC "-//W3C//DTD SVG 1.0//EN" "http://www.w3.org/TR/2001/REC-SVG-20010904/DTD/svg10.dtd">
<svg version="1.0" id="Calque_1" xmlns="http://www.w3.org/2000/svg" xmlns:xlink="http://www.w3.org/1999/xlink" x="0px" y="0px"
	 width="18px" height="18px" viewBox="0 0 18 18" enable-background="new 0 0 18 18" xml:space="preserve">
<path fill="#FFFFFF" d="M9,0C4.036,0,0.001,4.036,0,9c0.001,4.962,4.036,8.998,9,9c4.965-0.002,8.999-4.037,9-9
	C17.999,4.036,13.965,0,9,0z M14.654,14.652C13.204,16.102,11.206,16.998,9,17c-2.205-0.002-4.204-0.896-5.654-2.348
	C1.896,13.203,1,11.205,1,9c0-2.207,0.896-4.205,2.346-5.654S6.795,1,9,1c2.206,0,4.204,0.896,5.654,2.346
	C16.104,4.795,17,6.793,17,9C17,11.205,16.104,13.203,14.654,14.652z"/>
<g>
	<path fill="#FFFFFF" d="M10.766,5.786H9.814c0,0-0.42,0.031-0.42,0.453c0,0.344,0,1.016,0,1.016h1.45l-0.172,1.672H9.394v4.724
		H7.425V8.926H6.5V7.254h0.925V5.973c0-1.453,1.227-1.812,1.836-1.812s1.504,0,1.504,0V5.786z"/>
</g>
</svg>
