<?xml version="1.0" encoding="utf-8"?>
<!-- Generator: Adobe Illustrator 16.0.0, SVG Export Plug-In . SVG Version: 6.00 Build 0)  -->
<!DOCTYPE svg PUBLIC "-//W3C//DTD SVG 1.0//EN" "http://www.w3.org/TR/2001/REC-SVG-20010904/DTD/svg10.dtd">
<svg version="1.0" id="Calque_1" xmlns="http://www.w3.org/2000/svg" xmlns:xlink="http://www.w3.org/1999/xlink" x="0px" y="0px"
	 width="32px" height="22px" viewBox="0 0 32 22" enable-background="new 0 0 32 22" xml:space="preserve">
<path fill="#FFFFFF" d="M31,1v20H1V1H31 M32,0H0v22h32V0L32,0z"/>
<g>
	<path fill="#FFFFFF" d="M22.552,6l-0.824,0.666c0.108,0.104,0.227,0.193,0.327,0.307c0.912,1.031,1.475,2.453,1.475,4.027
		c0,1.578-0.562,2.998-1.475,4.031c-0.1,0.111-0.217,0.199-0.323,0.303L22.555,16c1.193-1.242,1.945-3.02,1.945-5
		C24.5,9.02,23.746,7.243,22.552,6z"/>
	<path fill="#FFFFFF" d="M20.881,7.352l-0.844,0.684c0.9,0.602,1.51,1.697,1.512,2.965c-0.002,1.267-0.61,2.363-1.508,2.966
		l0.844,0.682C21.871,13.818,22.52,12.5,22.52,11C22.52,9.5,21.87,8.182,20.881,7.352z"/>
	<path fill="#FFFFFF" d="M20.488,11.002c0-0.83-0.399-1.541-0.988-1.932V4l-4.001,4H9.5v6h6.001l3.999,4v-5.068
		C20.089,12.541,20.488,11.833,20.488,11.002z"/>
</g>
</svg>
