<?xml version="1.0" encoding="utf-8"?>
<!-- Generator: Adobe Illustrator 16.0.0, SVG Export Plug-In . SVG Version: 6.00 Build 0)  -->
<!DOCTYPE svg PUBLIC "-//W3C//DTD SVG 1.0//EN" "http://www.w3.org/TR/2001/REC-SVG-20010904/DTD/svg10.dtd">
<svg version="1.0" id="Calque_1" xmlns="http://www.w3.org/2000/svg" xmlns:xlink="http://www.w3.org/1999/xlink" x="0px" y="0px"
	 width="18px" height="18px" viewBox="0 0 18 18" enable-background="new 0 0 18 18" xml:space="preserve">
<g>
	<path fill="#FFFFFF" d="M9,0C4.036,0,0.001,4.035,0,9c0.001,4.963,4.036,8.998,9,9c4.965-0.002,9-4.037,9-9
		C17.999,4.035,13.965,0,9,0z M14.654,14.652C13.204,16.102,11.206,16.998,9,17c-2.205-0.002-4.203-0.896-5.653-2.348
		C1.896,13.203,1,11.205,1,9c0-2.207,0.896-4.205,2.346-5.654S6.794,1,9,1c2.207,0,4.205,0.896,5.655,2.346
		C16.104,4.795,17,6.793,17,9C17,11.205,16.104,13.203,14.654,14.652z"/>
	<path fill="#FFFFFF" d="M13.104,6.59C13.104,6.59,13.104,6.59,13.104,6.59c0-0.001,0.001-0.001,0.002-0.002
		c0.713-0.479,0.836-1.11,0.836-1.11c-0.252,0.151-1.021,0.354-1.404,0.448c-0.398-0.396-0.945-0.641-1.551-0.641
		c-1.214,0-2.198,0.984-2.198,2.198c0,0.104,0.017,0.202,0.03,0.302C8.233,7.762,7.464,7.658,6.733,7.359
		C5.262,6.758,4.436,5.679,4.436,5.679S3.57,7.058,4.78,8.173l0.334,0.263c-0.474,0.07-0.979-0.197-0.979-0.197
		s-0.188,1.409,1.713,2.023c-0.169,0.049-0.345,0.09-0.461,0.09c-0.285,0-0.489-0.08-0.489-0.08s0.149,0.678,0.815,1.098
		c0.478,0.303,0.938,0.371,1.292,0.361c-0.134,0.131-0.428,0.35-1.061,0.617c-0.777,0.328-2.035,0.344-2.035,0.344
		c0.915,0.535,1.682,0.824,3.312,0.85c3.435,0,5.985-2.496,5.985-6.188c0-0.001,0-0.002,0-0.003
		c0.594-0.425,1.062-1.098,1.062-1.098s-0.448,0.163-0.761,0.258C13.358,6.555,13.216,6.578,13.104,6.59z"/>
</g>
</svg>
