<?xml version="1.0" encoding="UTF-8" standalone="no"?>
<svg
   xmlns:svg="http://www.w3.org/2000/svg"
   xmlns="http://www.w3.org/2000/svg"
   version="1.0"
   id="icon_group"
   x="0px"
   y="0px"
   width="18px" height="18px"
   viewBox="0 0 320 320"
   enable-background="new 0 0 320 320"
   xml:space="preserve">
  <path fill="#66CCFF"
        d="M159.532,310.151c-82.164,0-149-66.836-149-149s66.836-149,149-149s149,66.836,149,149  S241.696,310.151,159.532,310.151z M159.532,28.706c-73.03,0-132.444,59.4-132.444,132.444c0,73.012,59.415,132.444,132.444,132.444  c73.028,0,132.444-59.433,132.444-132.444C291.977,88.106,232.561,28.706,159.532,28.706z"
        id="path1359" /><g
        transform="matrix(1 0 0 1 79.9861 238.7594)"
        style="font-size:206px;font-family:Merriweather-Regular;fill:#66ccff"
        id="text1361"><path
        d="m 122.61426,-21.424805 0,-40.334961 -33.193362,0 0,-16.697265 53.310552,0 0,64.475586 q -11.76856,8.3486325 -25.95118,12.6738278 -14.18261,4.2246094 -30.276364,4.2246094 -35.205078,0 -55.121094,-20.5195312 -19.815429,-20.620117 -19.815429,-57.333984 0,-36.814457 19.815429,-57.333987 19.916016,-20.62011 55.121094,-20.62011 14.685544,0 27.862304,3.62109 13.27734,3.62109 24.44238,10.66211 l 0,21.62597 q -11.26562,-9.55566 -23.93945,-14.38378 -12.67383,-4.82813 -26.655273,-4.82813 -27.560547,0 -41.441406,15.38965 -13.780274,15.38965 -13.780274,45.867187 0,30.376953 13.780274,45.766601 13.880859,15.389649 41.441406,15.389649 10.762695,0 19.211913,-1.810547 8.44922,-1.911133 15.18848,-5.833985 z"
        style="font-size:206px;font-family:Merriweather-Regular;fill:#66ccff"
        id="path5496" />
</g></svg>
