<?xml version="1.0" encoding="utf-8"?>
<!-- Generator: Adobe Illustrator 19.2.0, SVG Export Plug-In . SVG Version: 6.00 Build 0)  -->
<svg version="1.0" id="Calque_1" xmlns="http://www.w3.org/2000/svg" xmlns:xlink="http://www.w3.org/1999/xlink" x="0px" y="0px" width="18px" height="18px"
	 viewBox="0 0 320 320" enable-background="new 0 0 320 320" xml:space="preserve">
<path fill="#FF0066" d="M159.517,308c-82.164,0-149-66.836-149-149s66.836-149,149-149s149,66.836,149,149S241.681,308,159.517,308z
	 M159.517,26.556c-73.03,0-132.444,59.4-132.444,132.444c0,73.012,59.415,132.444,132.444,132.444
	c73.028,0,132.444-59.433,132.444-132.444C291.961,85.955,232.545,26.556,159.517,26.556z"/>
<path fill="#FF0066" d="M249.114,145.303l-48.84,35.551l18.703,57.656c0.971,2.756-0.055,5.795-2.416,7.537
	c-1.238,0.844-2.604,1.351-4.009,1.351c-1.336,0-2.814-0.507-4.023-1.351l-49.007-35.606l-49.064,35.606
	c-1.195,0.844-2.629,1.351-3.966,1.351c-1.434,0-2.799-0.507-3.995-1.351c-2.39-1.742-3.347-4.781-2.474-7.537l18.758-57.656
	l-49.064-35.609c-2.333-1.8-3.361-4.836-2.445-7.537c0.87-2.869,3.528-4.723,6.44-4.723h60.596l18.775-57.713
	c0.942-2.756,3.514-4.669,6.44-4.669c2.912,0,5.498,1.912,6.425,4.669l18.775,57.713h60.582h0.029c3.782,0,6.762,3.036,6.762,6.748
	C252.095,142.097,250.886,144.176,249.114,145.303z"/>
</svg>
