<?xml version="1.0" encoding="utf-8"?>
<!-- Generator: Adobe Illustrator 19.2.0, SVG Export Plug-In . SVG Version: 6.00 Build 0)  -->
<svg version="1.0" id="Calque_1" xmlns="http://www.w3.org/2000/svg" xmlns:xlink="http://www.w3.org/1999/xlink" x="0px" y="0px" width="18px" height="18px"
	 viewBox="0 0 320 320" enable-background="new 0 0 320 320" xml:space="preserve">
<g>
	<path fill="#5EA524" d="M159.327,308c-82.164,0-149-66.836-149-149s66.836-149,149-149s149,66.836,149,149S241.491,308,159.327,308
		z M159.327,26.556c-73.03,0-132.444,59.4-132.444,132.444c0,73.012,59.415,132.444,132.444,132.444
		c73.028,0,132.444-59.433,132.444-132.444C291.772,85.955,232.355,26.556,159.327,26.556z"/>
	<g>
		<path fill="#5EA524" d="M123.056,79.469c8.06-7.821,20.283-11.714,36.672-11.714s29.177,4.001,38.38,12.042
			c9.222,8.004,13.825,18.262,13.825,30.742c0,5.856-0.928,11.059-2.801,15.643c-3.401,8.404-9.803,15.753-19.227,22.047
			c-3.729,2.366-6.275,4.001-7.641,4.912c-1.363,0.872-4.092,2.582-8.203,5.13c-4.13,2.546-7.058,5.456-8.803,8.658
			c-1.729,3.237-2.857,9.896-3.366,20.009h-7.767l-0.255-11.096c0-7.458,3.202-16.989,9.606-28.631
			c6.421-11.642,9.623-23.937,9.623-36.926c0-10.515-1.82-18.664-5.476-24.448c-3.656-5.785-9.513-8.66-17.571-8.66
			c-5.258,0-9.023,1.129-11.278,3.384c-2.237,2.218-3.366,4.619-3.366,7.168c0,1.127,0.164,2.001,0.51,2.692
			c0.345,0.691,0.982,1.565,1.909,2.656l1.783,2.183c1.946,2.364,3.329,4.547,4.148,6.475c0.799,1.965,1.2,4.439,1.2,7.385
			c0,4.839-1.619,8.73-4.839,11.604c-3.219,2.874-7.093,4.331-11.586,4.331c-4.748,0-8.877-1.71-12.351-5.167
			c-3.474-3.42-5.221-8.404-5.221-14.952C110.96,95.767,114.998,87.29,123.056,79.469z M142.739,213.349
			c4.275-4.293,9.477-6.439,15.589-6.439c6.02,0,11.206,2.146,15.535,6.439c4.329,4.293,6.493,9.496,6.493,15.607
			c0,6.111-2.164,11.314-6.493,15.607c-4.329,4.256-9.515,6.402-15.535,6.402c-6.111,0-11.314-2.146-15.589-6.402
			c-4.293-4.293-6.439-9.496-6.439-15.607C136.299,222.844,138.445,217.642,142.739,213.349z"/>
	</g>
</g>
</svg>
