<?xml version="1.0" encoding="UTF-8" standalone="no"?>
<!-- Generator: Adobe Illustrator 19.2.0, SVG Export Plug-In . SVG Version: 6.00 Build 0)  -->

<svg
   xmlns:svg="http://www.w3.org/2000/svg"
   xmlns="http://www.w3.org/2000/svg"
   version="1.0"
   id="Calque_1"
   x="0px"
   y="0px" width="18px" height="18px"
   viewBox="0 0 320 320"
   enable-background="new 0 0 320 320"
   xml:space="preserve">
  <path
      style="fill:#66ccff"
      d="M 159.532,310.151 C 100.93614,310.93949 44.494482,273.21232 22.258938,219.09519 -0.96981442,165.92121 11.11585,99.865627 51.721458,58.398721 90.770449,16.363665 155.10931,0.90568177 208.99693,20.589096 c 56.47332,19.222394 97.94058,75.089598 99.42559,134.810674 3.01208,58.01863 -31.8351,115.40568 -84.34797,140.03665 -20.03964,9.69881 -42.28276,14.74394 -64.54255,14.71458 z m 0,-281.445 C 100.70969,27.690857 45.092499,70.964459 31.264906,128.08449 16.910029,180.90008 39.696255,240.96372 85.533068,270.9391 132.36625,303.73411 200.26657,300.43018 243.72935,263.30637 287.46481,228.37677 304.06132,164.39194 282.77479,112.62849 263.64377,62.857594 212.93782,28.078654 159.532,28.706 Z"
      id="path1359"
      />
  <g
      transform="matrix(1 0 0 1 95.6527 238.7594)"
      style="font-size:206px;font-family:Merriweather-Regular;fill:#66ccff"
      id="text1361">
    <path
        style="font-size:206px;font-family:Merriweather-Regular;fill:#66ccff"
        d="m 40.536133,-133.47754 c 0,18.80957 0,37.619141 0,56.428712 14.428899,-0.829345 29.788754,2.538595 43.20166,-4.13031 19.114187,-11.371556 15.307489,-47.287552 -7.921143,-51.265822 -11.613627,-1.8938 -23.542852,-0.69443 -35.280517,-1.03258 z m -20.31836,-16.69726 c 21.018063,0.51702 42.204172,-1.3258 63.062668,1.61252 18.565159,2.6354 33.493719,19.04164 33.699439,37.90832 2.54844,19.132735 -6.63372,41.064972 -26.406566,46.706058 -16.144897,5.383418 -33.33395,3.094255 -50.037181,3.59634 0,20.117187 0,40.234375 0,60.351562 -6.772787,0 -13.545573,0 -20.31836,0 0,-50.058267 0,-100.11653 0,-150.1748 z"
        id="path5496" />
  </g>
</svg>

