<?xml version="1.0" encoding="UTF-8" standalone="no"?>
<!-- Generator: Adobe Illustrator 16.0.0, SVG Export Plug-In . SVG Version: 6.00 Build 0)  -->

<svg
   xmlns:dc="http://purl.org/dc/elements/1.1/"
   xmlns:cc="http://creativecommons.org/ns#"
   xmlns:rdf="http://www.w3.org/1999/02/22-rdf-syntax-ns#"
   xmlns:svg="http://www.w3.org/2000/svg"
   xmlns="http://www.w3.org/2000/svg"
   xmlns:sodipodi="http://sodipodi.sourceforge.net/DTD/sodipodi-0.dtd"
   xmlns:inkscape="http://www.inkscape.org/namespaces/inkscape"
   version="1.0"
   id="Calque_1"
   x="0px"
   y="0px"
   width="18px"
   height="18px"
   viewBox="0 0 18 18"
   enable-background="new 0 0 18 18"
   xml:space="preserve"
   inkscape:version="0.91 r13725"
   sodipodi:docname="notes_featured.svg"><metadata
     id="metadata11"><rdf:RDF><cc:Work
         rdf:about=""><dc:format>image/svg+xml</dc:format><dc:type
           rdf:resource="http://purl.org/dc/dcmitype/StillImage" /></cc:Work></rdf:RDF></metadata><defs
     id="defs9" /><sodipodi:namedview
     pagecolor="#ffffff"
     bordercolor="#666666"
     borderopacity="1"
     objecttolerance="10"
     gridtolerance="10"
     guidetolerance="10"
     inkscape:pageopacity="0"
     inkscape:pageshadow="2"
     inkscape:window-width="1680"
     inkscape:window-height="1015"
     id="namedview7"
     showgrid="false"
     inkscape:zoom="13.111111"
     inkscape:cx="9.1525424"
     inkscape:cy="9"
     inkscape:window-x="0"
     inkscape:window-y="26"
     inkscape:window-maximized="0"
     inkscape:current-layer="Calque_1" /><g
     id="g3"><path
       fill="#999999"
       d="M9,0C4.037,0,0,4.038,0,9c0,4.962,4.037,9,9,9s9-4.037,9-9C18,4.038,13.963,0,9,0z M9,17   c-4.411,0-8-3.59-8-8c0-4.412,3.589-8,8-8s8,3.588,8,8C17,13.41,13.411,17,9,17z"
       id="path5" /></g><path
     sodipodi:type="star"
     style="opacity:1;fill:none;fill-opacity:1;fill-rule:evenodd;stroke:#cccccc;stroke-width:1;stroke-linecap:round;stroke-linejoin:round;stroke-miterlimit:4;stroke-dasharray:none;stroke-dashoffset:0;stroke-opacity:1"
     id="path4141"
     sodipodi:sides="5"
     sodipodi:cx="8.8474579"
     sodipodi:cy="8.8474579"
     sodipodi:r1="6.5491148"
     sodipodi:r2="2.592881"
     sodipodi:arg1="0.25910199"
     sodipodi:arg2="0.98618642"
     inkscape:flatsided="false"
     inkscape:rounded="0"
     inkscape:randomized="0"
     d="M 15.177966,10.525424 10.278402,11.009732 9.2078522,15.386649 7.2331986,10.876546 2.7396856,11.210934 6.4188469,7.9392287 4.7122527,3.7689756 8.9607531,6.2570533 12.399533,3.3453068 11.346089,8.154729 Z"
     inkscape:transform-center-x="0.32569911"
     inkscape:transform-center-y="0.20540172" /></svg>