<?xml version="1.0" encoding="utf-8"?>
<!-- Generator: Adobe Illustrator 16.0.0, SVG Export Plug-In . SVG Version: 6.00 Build 0)  -->
<!DOCTYPE svg PUBLIC "-//W3C//DTD SVG 1.0//EN" "http://www.w3.org/TR/2001/REC-SVG-20010904/DTD/svg10.dtd">
<svg version="1.0" id="Calque_1" xmlns="http://www.w3.org/2000/svg" xmlns:xlink="http://www.w3.org/1999/xlink" x="0px" y="0px"
	 width="18px" height="18px" viewBox="0 0 18 18" enable-background="new 0 0 18 18" xml:space="preserve">
<g>
	<path fill="#999999" d="M9,0C4.037,0,0,4.038,0,9c0,4.962,4.037,9,9,9s9-4.037,9-9C18,4.038,13.963,0,9,0z M9,17
		c-4.411,0-8-3.59-8-8c0-4.412,3.589-8,8-8s8,3.588,8,8C17,13.41,13.411,17,9,17z"/>
	<path fill="#999999" d="M12.95,4.086l-2.792-0.402c0-0.002,0.001-0.002,0.001-0.004c0-0.275-0.224-0.5-0.5-0.5H8.342
		c-0.273,0-0.493,0.219-0.498,0.49L4.896,4.051C4.538,4.147,3.86,4.563,3.86,5.458v0.994h0.733l1.017,8.367h6.78l1.017-8.367h0.734
		V5.458C14.142,4.606,13.395,4.196,12.95,4.086z M11.504,13.818H6.497L5.601,6.452h0.801l0.554,6.566l0.996-0.084L7.404,6.452h1.132
		v6.521h1V6.452h1.061l-0.546,6.482l0.996,0.084L11.6,6.452H12.4L11.504,13.818z M4.86,5.452C4.862,5.143,5.072,5.043,5.088,5.03
		l3.927-0.5l3.744,0.537c0.003,0.002,0.379,0.102,0.383,0.385H4.86z"/>
</g>
</svg>
