<?xml version="1.0" encoding="utf-8"?>
<!-- Generator: Adobe Illustrator 19.1.1, SVG Export Plug-In . SVG Version: 6.00 Build 0)  -->
<svg version="1.0" id="Calque_1" xmlns="http://www.w3.org/2000/svg" xmlns:xlink="http://www.w3.org/1999/xlink" x="0px" y="0px"
	 viewBox="0 0 320 320" enable-background="new 0 0 320 320" xml:space="preserve">
<g>
	<circle fill="#DDDDDD" stroke="#FFFFFF" stroke-width="3" stroke-miterlimit="10" cx="160" cy="160" r="157"/>
	<polygon fill="#FFFFFF" points="157.806,50.522 133.579,91.512 182.099,91.512 	"/>
	<polygon fill="#FFFFFF" points="157.806,50.522 152.576,47.42 122.864,97.611 192.798,97.611 157.806,38.562 152.576,47.42 
		157.806,50.522 152.576,53.655 171.366,85.413 144.261,85.413 163.087,53.655 157.806,50.522 152.576,53.655 	"/>
	<polygon fill="#FFFFFF" points="157.806,257.412 182.099,216.422 133.579,216.422 	"/>
	<polygon fill="#FFFFFF" points="157.806,257.412 163.087,260.479 192.798,210.29 122.864,210.29 157.806,269.372 163.087,260.479 
		157.806,257.412 163.087,254.277 144.261,222.521 171.366,222.521 152.576,254.277 157.806,257.412 163.087,254.277 	"/>
	<polygon fill="#FFFFFF" points="262.035,153.966 221.045,129.707 221.045,178.227 	"/>
	<polygon fill="#FFFFFF" points="262.035,153.966 265.153,148.72 214.929,119.007 214.929,188.927 274.029,153.966 265.153,148.72 
		262.035,153.966 258.9,148.72 227.144,167.528 227.144,140.406 258.9,159.214 262.035,153.966 258.9,148.72 	"/>
	<polygon fill="#FFFFFF" points="55.169,153.966 96.15,178.227 96.15,129.707 	"/>
	<polygon fill="#FFFFFF" points="55.169,153.966 52.068,159.214 102.258,188.927 102.258,119.007 43.192,153.966 52.068,159.214 
		55.169,153.966 58.27,159.214 90.043,140.406 90.043,167.528 58.27,148.72 55.169,153.966 58.27,159.214 	"/>
</g>
</svg>
