<?xml version="1.0" encoding="utf-8"?>
<!-- Generator: Adobe Illustrator 16.0.0, SVG Export Plug-In . SVG Version: 6.00 Build 0)  -->
<!DOCTYPE svg PUBLIC "-//W3C//DTD SVG 1.0//EN" "http://www.w3.org/TR/2001/REC-SVG-20010904/DTD/svg10.dtd">
<svg version="1.0" id="Calque_1" xmlns="http://www.w3.org/2000/svg" xmlns:xlink="http://www.w3.org/1999/xlink" x="0px" y="0px"
	 width="18px" height="18px" viewBox="0 0 18 18" enable-background="new 0 0 18 18" xml:space="preserve">
<g>
	<polygon fill="#FFFFFF" points="6.996,5.77 11.005,5.77 8.999,2.385 	"/>
	<polygon fill="#FFFFFF" points="8.999,15.615 11.005,12.229 6.996,12.229 	"/>
	<polygon fill="#FFFFFF" points="12.273,6.996 12.273,11.004 15.661,9 	"/>
	<polygon fill="#FFFFFF" points="5.815,11.004 5.815,6.996 2.429,9 	"/>
	<path fill="#FFFFFF" d="M8.999,0C4.036,0,0.001,4.035,0,9c0.001,4.965,4.036,8.998,8.999,9c4.965-0.002,9-4.035,9-9
		S13.964,0,8.999,0z M14.653,14.654C13.204,16.104,11.206,17,8.999,17c-2.206,0-4.202-0.896-5.653-2.346C1.896,13.203,1,11.207,1,9
		s0.896-4.203,2.346-5.654C4.797,1.896,6.793,1,8.999,1c2.207,0,4.205,0.896,5.654,2.346C16.104,4.797,17,6.793,17,9
		S16.104,13.203,14.653,14.654z"/>
</g>
</svg>
