<?xml version="1.0" encoding="utf-8"?>
<!-- Generator: Adobe Illustrator 16.0.0, SVG Export Plug-In . SVG Version: 6.00 Build 0)  -->
<!DOCTYPE svg PUBLIC "-//W3C//DTD SVG 1.0//EN" "http://www.w3.org/TR/2001/REC-SVG-20010904/DTD/svg10.dtd">
<svg version="1.0" id="Calque_1" xmlns="http://www.w3.org/2000/svg" xmlns:xlink="http://www.w3.org/1999/xlink" x="0px" y="0px"
	 width="18px" height="18px" viewBox="0 0 18 18" enable-background="new 0 0 18 18" xml:space="preserve">
<rect x="8.5" y="3.385" fill="#FFFFFF" width="1" height="11.23"/>
<rect x="3.384" y="8.5" fill="#FFFFFF" width="11.232" height="1"/>
<path fill="#FFFFFF" d="M9,17.5V18c4.963-0.002,8.999-4.035,9-9c-0.001-4.965-4.036-9-9-9c-4.964,0-9,4.035-9,9
	c0.001,4.965,4.036,8.998,9,9V17.5V17c-2.207,0-4.204-0.896-5.654-2.346C1.896,13.203,1,11.207,1,9s0.896-4.203,2.346-5.654
	C4.796,1.896,6.793,1,9,1c2.206,0,4.203,0.896,5.653,2.346C16.104,4.797,16.999,6.793,17,9c-0.001,2.207-0.896,4.203-2.347,5.654
	C13.203,16.104,11.206,17,9,17V17.5L9,17.5z"/>
</svg>
