<?xml version="1.0" encoding="utf-8"?>
<!-- Generator: Adobe Illustrator 16.0.0, SVG Export Plug-In . SVG Version: 6.00 Build 0)  -->
<!DOCTYPE svg PUBLIC "-//W3C//DTD SVG 1.0//EN" "http://www.w3.org/TR/2001/REC-SVG-20010904/DTD/svg10.dtd">
<svg version="1.0" id="Calque_1" xmlns="http://www.w3.org/2000/svg" xmlns:xlink="http://www.w3.org/1999/xlink" x="0px" y="0px"
	 width="72px" height="72px" viewBox="0 0 72 72" enable-background="new 0 0 72 72" xml:space="preserve">
<g>
	<g>
		<g>
			<defs>
				<path id="SVGID_1_" d="M35.644,72c-8.893,0-16.877-3.104-23.955-9.311C3.895,55.826,0,46.83,0,35.708
					c0-9.774,3.553-18.169,10.662-25.185C17.74,3.508,26.246,0,36.18,0c9.814,0,18.232,3.538,25.248,10.613
					C68.479,17.69,72,26.189,72,36.113c0,9.983-3.537,18.452-10.617,25.409C54.275,68.508,45.695,72,35.644,72"/>
			</defs>
			<use xlink:href="#SVGID_1_"  overflow="visible" opacity="0.3" fill="#FFFFFF"/>
			<clipPath id="SVGID_2_">
				<use xlink:href="#SVGID_1_"  overflow="visible" opacity="0.3"/>
			</clipPath>
		</g>
	</g>
</g>
<polygon fill="#FFFFFF" points="52.621,36 27.32,19.348 27.32,52.65 "/>
</svg>
